<?xml version="1.0" standalone="no"?>
<!DOCTYPE svg PUBLIC "-//W3C//DTD SVG 20010904//EN"
 "http://www.w3.org/TR/2001/REC-SVG-20010904/DTD/svg10.dtd">
<svg version="1.0" xmlns="http://www.w3.org/2000/svg"
 width="300.000000pt" height="300.000000pt" viewBox="0 0 300.000000 300.000000"
 preserveAspectRatio="xMidYMid meet">

<g transform="translate(0.000000,300.000000) scale(0.100000,-0.100000)"
fill="#000000" stroke="none">
<path d="M1048 2349 l-438 -219 0 -630 0 -630 440 -220 c242 -121 442 -220
445 -220 3 0 5 95 5 210 0 116 -2 210 -5 210 -2 0 -170 50 -372 110 -203 61
-376 113 -385 116 -17 5 -18 34 -18 420 0 324 3 414 13 414 11 0 249 -33 587
-81 329 -46 299 -46 665 0 182 23 345 44 364 48 29 5 -4 17 -215 81 -137 41
-334 100 -439 132 l-190 58 -3 211 c-1 116 -6 211 -10 210 -4 0 -204 -99 -444
-220z"/>
<path d="M1315 1750 c-71 -10 -133 -19 -137 -19 -5 -1 -8 -104 -8 -231 l0
-229 33 -6 c45 -7 269 -35 284 -35 10 0 13 56 13 270 l0 270 -27 -1 c-16 -1
-86 -10 -158 -19z"/>
<path d="M985 1709 c-33 -4 -79 -11 -102 -14 l-43 -6 0 -190 c0 -104 3 -189 8
-189 4 -1 51 -7 105 -14 l97 -12 0 218 c0 120 -1 217 -2 217 -2 -1 -30 -5 -63
-10z"/>
</g>
</svg>
