<?xml version="1.0" encoding="UTF-8"?>
<svg xmlns="http://www.w3.org/2000/svg" xmlns:xlink="http://www.w3.org/1999/xlink" width="510.64pt" height="151.82pt" viewBox="0 0 510.64 151.82" version="1.1">
<g id="surface1">
<path style=" stroke:none;fill-rule:evenodd;fill:rgb(0%,35.299683%,66.699219%);fill-opacity:1;" d="M 0 151.820313 L 510.640625 151.820313 L 510.640625 0 L 0 0 Z M 0 151.820313 "/>
<path style=" stroke:none;fill-rule:evenodd;fill:rgb(100%,100%,100%);fill-opacity:1;" d="M 135.28125 107.457031 C 133.15625 110.28125 130.628906 112.128906 128.765625 113.765625 C 121.324219 120.300781 107.921875 126.726563 107.921875 126.726563 L 86.152344 73.507813 C 86.152344 73.507813 89.988281 71.75 98.453125 73.507813 C 102.160156 74.277344 104.179688 76.835938 108.242188 77.707031 C 112.34375 78.585938 117.070313 78.140625 118.992188 77.867188 C 120.910156 77.59375 129.183594 73.738281 129.183594 73.738281 L 129.121094 47.335938 C 129.121094 47.335938 118.660156 51.222656 115.15625 51.257813 C 99.890625 51.417969 97.015625 43.382813 88.230469 43.222656 C 78.59375 43.050781 71.105469 47.941406 71.105469 47.941406 L 69.800781 36.503906 L 56.03125 26.195313 L 56.03125 44.132813 L 64.480469 52.128906 L 99.730469 131.675781 L 91.878906 136.394531 L 55.503906 111.183594 C 55.503906 111.183594 48.796875 106.394531 47.519531 102.671875 C 46.429688 99.496094 46.398438 93.566406 46.398438 93.566406 L 46.28125 31.097656 C 46.28125 22.445313 53.300781 15.429688 61.953125 15.429688 L 123.175781 15.429688 C 131.832031 15.429688 138.847656 22.445313 138.847656 31.097656 L 138.847656 92.289063 C 138.847656 92.289063 139.003906 102.511719 135.28125 107.457031 M 106.660156 87.5 C 108.445313 87.964844 111.089844 88.460938 114.535156 88.601563 C 118.257813 88.75 121.363281 88.105469 123.53125 87.433594 C 125.628906 86.773438 129.183594 84.757813 129.183594 84.757813 L 129.183594 93.515625 C 129.183594 93.515625 129.015625 94.738281 128.75 96.023438 C 128.613281 96.6875 128.449219 97.390625 128.261719 98.019531 C 128.082031 98.625 127.835938 99.320313 127.496094 99.847656 C 126.574219 101.269531 125.890625 102.117188 125.15625 102.839844 C 124.511719 103.472656 123.855469 103.96875 122.902344 104.808594 C 121.117188 106.375 111.6875 112.304688 111.6875 112.304688 L 100.492188 85.019531 C 100.492188 85.019531 104.980469 87.0625 106.660156 87.5 M 123.160156 24.296875 C 127.148438 24.296875 129.183594 27.359375 129.183594 31.097656 L 129.183594 34.675781 C 127.402344 36.914063 121.847656 39.828125 112.519531 39.828125 C 105.539063 39.828125 98.222656 33.101563 88.757813 33.101563 C 83.574219 33.101563 79.054688 34.273438 79.054688 34.273438 L 66.898438 24.191406 Z M 80.398438 115.738281 L 60.90625 102.960938 C 60.90625 102.960938 60.292969 102.464844 59.589844 101.753906 C 58.910156 101.066406 58.03125 100.085938 57.34375 98.976563 C 56.496094 97.59375 56.214844 95.828125 56.113281 94.578125 C 56.003906 93.253906 56.078125 92.222656 56.078125 92.222656 L 56.03125 64.429688 "/>
<path style=" stroke:none;fill-rule:evenodd;fill:rgb(100%,100%,100%);fill-opacity:1;" d="M 195.578125 86.386719 L 205.363281 86.386719 C 209.09375 86.386719 212.554688 87.320313 212.554688 91.847656 C 212.554688 95.839844 209.824219 97.503906 206.164063 97.503906 L 195.578125 97.503906 Z M 185.128906 125.792969 L 208.160156 125.792969 C 216.746094 125.792969 224.933594 121.664063 224.933594 112.015625 C 224.933594 106.089844 222.007813 101.628906 216.214844 99.964844 C 220.34375 97.96875 222.671875 94.707031 222.671875 90.046875 C 222.671875 81.195313 216.546875 78.265625 207.496094 78.265625 L 185.128906 78.265625 Z M 195.578125 104.625 L 206.964844 104.625 C 211.421875 104.625 214.484375 106.554688 214.484375 111.414063 C 214.484375 116.339844 210.890625 117.671875 206.761719 117.671875 L 195.578125 117.671875 "/>
<path style=" stroke:none;fill-rule:evenodd;fill:rgb(100%,100%,100%);fill-opacity:1;" d="M 240.027344 101.964844 C 240.359375 98.234375 242.6875 96.769531 246.28125 96.769531 C 249.609375 96.769531 252.40625 97.371094 252.40625 101.429688 C 252.40625 105.289063 247.015625 105.089844 241.222656 105.957031 C 235.367188 106.757813 229.507813 108.617188 229.507813 116.40625 C 229.507813 123.464844 234.703125 126.726563 241.222656 126.726563 C 245.417969 126.726563 249.8125 125.59375 252.804688 122.464844 C 252.871094 123.597656 253.136719 124.726563 253.472656 125.792969 L 263.058594 125.792969 C 262.191406 124.394531 261.859375 121.265625 261.859375 118.136719 L 261.859375 100.234375 C 261.859375 91.980469 253.605469 90.445313 246.75 90.445313 C 239.027344 90.445313 231.105469 93.109375 230.574219 101.964844 Z M 252.40625 112.480469 C 252.40625 114.542969 252.140625 120.402344 244.753906 120.402344 C 241.691406 120.402344 238.960938 119.535156 238.960938 116.007813 C 238.960938 112.546875 241.625 111.546875 244.550781 110.949219 C 247.480469 110.414063 250.808594 110.351563 252.40625 108.953125 "/>
<path style=" stroke:none;fill-rule:evenodd;fill:rgb(100%,100%,100%);fill-opacity:1;" d="M 269.171875 125.792969 L 278.625 125.792969 L 278.625 107.753906 C 278.625 100.765625 280.820313 97.902344 285.945313 97.902344 C 290.339844 97.902344 292.003906 100.699219 292.003906 106.355469 L 292.003906 125.792969 L 301.453125 125.792969 L 301.453125 104.625 C 301.453125 96.105469 298.925781 90.445313 288.875 90.445313 C 284.878906 90.445313 280.753906 92.3125 278.355469 96.171875 L 278.15625 96.171875 L 278.15625 91.378906 L 269.171875 91.378906 "/>
<path style=" stroke:none;fill-rule:evenodd;fill:rgb(100%,100%,100%);fill-opacity:1;" d="M 309.492188 125.792969 L 318.941406 125.792969 L 318.941406 113.945313 L 322.605469 110.417969 L 332.054688 125.792969 L 343.507813 125.792969 L 329.058594 104.027344 L 342.039063 91.378906 L 330.859375 91.378906 L 318.941406 103.761719 L 318.941406 78.265625 L 309.492188 78.265625 "/>
<path style=" stroke:none;fill-rule:evenodd;fill:rgb(100%,100%,100%);fill-opacity:1;" d="M 182.136719 48.3125 C 182.003906 60.027344 191.851563 65.21875 202.371094 65.21875 C 215.28125 65.21875 222.140625 58.695313 222.140625 49.976563 C 222.140625 39.191406 211.488281 36.996094 208.027344 36.128906 C 196.113281 33.066406 193.851563 32.601563 193.851563 28.941406 C 193.851563 24.945313 197.710938 23.550781 201.039063 23.550781 C 206.03125 23.550781 210.09375 25.015625 210.425781 30.738281 L 220.542969 30.738281 C 220.542969 19.753906 211.421875 15.429688 201.503906 15.429688 C 192.917969 15.429688 183.734375 20.089844 183.734375 29.808594 C 183.734375 38.726563 190.855469 41.453125 197.910156 43.320313 C 204.898438 45.183594 212.023438 46.046875 212.023438 51.171875 C 212.023438 56.03125 206.429688 57.097656 202.769531 57.097656 C 197.179688 57.097656 192.253906 54.636719 192.253906 48.3125 "/>
<path style=" stroke:none;fill-rule:evenodd;fill:rgb(100%,100%,100%);fill-opacity:1;" d="M 239.292969 19.355469 L 229.839844 19.355469 L 229.839844 29.671875 L 224.117188 29.671875 L 224.117188 35.996094 L 229.839844 35.996094 L 229.839844 56.296875 C 229.839844 63.152344 234.898438 64.484375 240.691406 64.484375 C 242.554688 64.484375 244.617188 64.421875 246.214844 64.152344 L 246.214844 56.765625 C 245.21875 56.964844 244.285156 57.03125 243.289063 57.03125 C 240.09375 57.03125 239.292969 56.230469 239.292969 53.035156 L 239.292969 35.996094 L 246.214844 35.996094 L 246.214844 29.671875 L 239.292969 29.671875 "/>
<path style=" stroke:none;fill-rule:evenodd;fill:rgb(100%,100%,100%);fill-opacity:1;" d="M 258.828125 40.257813 C 259.160156 36.527344 261.492188 35.066406 265.085938 35.066406 C 268.414063 35.066406 271.210938 35.664063 271.210938 39.726563 C 271.210938 43.585938 265.816406 43.386719 260.027344 44.25 C 254.167969 45.050781 248.3125 46.914063 248.3125 54.699219 C 248.3125 61.757813 253.503906 65.019531 260.027344 65.019531 C 264.222656 65.019531 268.613281 63.886719 271.609375 60.757813 C 271.675781 61.890625 271.941406 63.023438 272.273438 64.085938 L 281.859375 64.085938 C 280.992188 62.691406 280.660156 59.5625 280.660156 56.433594 L 280.660156 38.527344 C 280.660156 30.273438 272.40625 28.742188 265.554688 28.742188 C 257.828125 28.742188 249.910156 31.402344 249.378906 40.257813 Z M 271.210938 50.773438 C 271.210938 52.835938 270.941406 58.695313 263.554688 58.695313 C 260.492188 58.695313 257.765625 57.828125 257.765625 54.300781 C 257.765625 50.839844 260.429688 49.84375 263.355469 49.242188 C 266.285156 48.710938 269.613281 48.644531 271.210938 47.246094 "/>
<path style=" stroke:none;fill-rule:evenodd;fill:rgb(100%,100%,100%);fill-opacity:1;" d="M 287.972656 64.085938 L 297.425781 64.085938 L 297.425781 46.046875 C 297.425781 39.058594 299.621094 36.195313 304.746094 36.195313 C 309.140625 36.195313 310.804688 38.992188 310.804688 44.648438 L 310.804688 64.085938 L 320.257813 64.085938 L 320.257813 42.921875 C 320.257813 34.398438 317.726563 28.742188 307.675781 28.742188 C 303.683594 28.742188 299.554688 30.605469 297.160156 34.464844 L 296.960938 34.464844 L 296.960938 29.671875 L 287.972656 29.671875 "/>
<path style=" stroke:none;fill-rule:evenodd;fill:rgb(100%,100%,100%);fill-opacity:1;" d="M 351.855469 46.78125 C 351.855469 52.4375 349.992188 57.894531 343.734375 57.894531 C 337.878906 57.894531 335.414063 52.238281 335.414063 46.847656 C 335.414063 41.1875 337.542969 35.863281 343.734375 35.863281 C 349.859375 35.863281 351.855469 41.1875 351.855469 46.78125 M 351.988281 64.085938 L 360.976563 64.085938 L 360.976563 16.558594 L 351.523438 16.558594 L 351.523438 33.867188 L 351.390625 33.867188 L 351.457031 33.867188 C 349.261719 30.472656 345.265625 28.742188 341.207031 28.742188 C 331.089844 28.742188 325.964844 37.328125 325.964844 46.578125 C 325.964844 56.097656 331.023438 65.019531 341.40625 65.019531 C 345.800781 65.019531 349.660156 63.421875 351.855469 59.695313 L 351.988281 59.695313 "/>
<path style=" stroke:none;fill-rule:evenodd;fill:rgb(100%,100%,100%);fill-opacity:1;" d="M 377.128906 40.257813 C 377.460938 36.527344 379.789063 35.066406 383.382813 35.066406 C 386.714844 35.066406 389.507813 35.664063 389.507813 39.726563 C 389.507813 43.585938 384.113281 43.386719 378.324219 44.25 C 372.464844 45.050781 366.609375 46.914063 366.609375 54.699219 C 366.609375 61.757813 371.800781 65.019531 378.324219 65.019531 C 382.519531 65.019531 386.910156 63.886719 389.90625 60.757813 C 389.972656 61.890625 390.238281 63.023438 390.570313 64.085938 L 400.15625 64.085938 C 399.292969 62.691406 398.960938 59.5625 398.960938 56.433594 L 398.960938 38.527344 C 398.960938 30.273438 390.703125 28.742188 383.851563 28.742188 C 376.128906 28.742188 368.207031 31.402344 367.675781 40.257813 Z M 389.507813 50.773438 C 389.507813 52.835938 389.238281 58.695313 381.855469 58.695313 C 378.789063 58.695313 376.0625 57.828125 376.0625 54.300781 C 376.0625 50.839844 378.726563 49.84375 381.652344 49.242188 C 384.582031 48.710938 387.910156 48.644531 389.507813 47.246094 "/>
<path style=" stroke:none;fill-rule:evenodd;fill:rgb(100%,100%,100%);fill-opacity:1;" d="M 406.269531 64.085938 L 415.722656 64.085938 L 415.722656 48.578125 C 415.722656 42.519531 418.117188 37.527344 425.042969 37.527344 C 426.171875 37.527344 427.570313 37.660156 428.4375 37.859375 L 428.4375 29.074219 C 427.839844 28.875 427.039063 28.742188 426.375 28.742188 C 421.78125 28.742188 417.121094 31.738281 415.390625 36.0625 L 415.257813 36.0625 L 415.257813 29.671875 L 406.269531 29.671875 "/>
<path style=" stroke:none;fill-rule:evenodd;fill:rgb(100%,100%,100%);fill-opacity:1;" d="M 455.238281 46.78125 C 455.238281 52.4375 453.378906 57.894531 447.117188 57.894531 C 441.261719 57.894531 438.800781 52.238281 438.800781 46.847656 C 438.800781 41.1875 440.929688 35.863281 447.117188 35.863281 C 453.242188 35.863281 455.238281 41.1875 455.238281 46.78125 M 455.371094 64.085938 L 464.359375 64.085938 L 464.359375 16.558594 L 454.90625 16.558594 L 454.90625 33.867188 L 454.773438 33.867188 L 454.839844 33.867188 C 452.644531 30.472656 448.648438 28.742188 444.589844 28.742188 C 434.472656 28.742188 429.347656 37.328125 429.347656 46.578125 C 429.347656 56.097656 434.40625 65.019531 444.789063 65.019531 C 449.183594 65.019531 453.042969 63.421875 455.238281 59.695313 L 455.371094 59.695313 "/>
</g>
</svg>
