<svg xmlns="http://www.w3.org/2000/svg" width="63" height="74" viewBox="0 0 63 74" version="1.1"><path d="M 0 37.014 L 0 74.028 31.750 73.764 L 63.500 73.500 63.762 36.750 L 64.025 0 32.012 0 L 0 0 0 37.014 M 0.453 37.500 C 0.453 57.850, 0.586 66.033, 0.749 55.685 C 0.912 45.336, 0.911 28.686, 0.748 18.685 C 0.585 8.683, 0.452 17.150, 0.453 37.500 M 12.500 3.187 C 9.200 3.707, 5.963 4.665, 5.307 5.316 C 3.422 7.186, 1.627 34.532, 2.928 41.567 C 5.199 53.855, 12.403 63.119, 24.202 68.928 C 29.309 71.442, 31.547 72.039, 33.919 71.518 C 35.613 71.146, 37 70.381, 37 69.818 C 37 68.017, 13.698 22.794, 11.304 19.949 C 9.123 17.358, 8.115 11.218, 9.623 9.710 C 10.720 8.614, 17 14.161, 17 16.226 C 17 17.716, 17.438 18.041, 18.750 17.522 C 23.435 15.669, 27.218 15.892, 35.420 18.503 C 44.053 21.252, 46.656 21.261, 53.115 18.564 C 54.481 17.994, 54.839 18.990, 55.432 25.011 C 56.231 33.110, 55.877 33.850, 49.928 36.532 C 46.271 38.181, 45.358 38.233, 41.173 37.029 C 38.603 36.289, 34.925 35.516, 33 35.310 C 26.156 34.580, 26.241 35.461, 34.626 52.274 L 42.392 67.843 46.847 64.671 C 54.954 58.901, 59.981 50.104, 61.517 39 C 62.546 31.563, 60.301 6.705, 58.480 5.367 C 54.407 2.374, 26.156 1.035, 12.500 3.187 M 18 8.820 C 18 10.649, 21.154 11.787, 24.916 11.316 C 27.057 11.048, 30.879 11.699, 34.407 12.933 C 40.777 15.162, 47.337 15.583, 51.435 14.025 C 54.387 12.902, 54.808 10.554, 52.250 9.478 C 49.217 8.203, 18 7.603, 18 8.820 M 8.467 28.346 C 7.383 32.560, 8.702 42.535, 11.044 47.843 C 12.174 50.404, 14.764 54.216, 16.799 56.313 C 20.797 60.432, 26.793 64.541, 27.612 63.722 C 27.890 63.443, 23.861 54.729, 18.658 44.358 C 10.104 27.304, 9.128 25.772, 8.467 28.346 M 52 41.534 C 49.084 43.161, 41.256 43.428, 37.568 42.026 C 35.069 41.076, 35.119 41.278, 39.576 50.151 L 44.146 59.251 47.507 55.994 C 50.960 52.647, 55.360 43.912, 54.809 41.496 C 54.550 40.360, 54.093 40.366, 52 41.534" stroke="none" fill="#0934ac" fill-rule="evenodd"/><path d="M 12.500 3.187 C 9.200 3.707, 5.963 4.665, 5.307 5.316 C 3.422 7.186, 1.627 34.532, 2.928 41.567 C 5.199 53.855, 12.403 63.119, 24.202 68.928 C 29.309 71.442, 31.547 72.039, 33.919 71.518 C 35.613 71.146, 37 70.381, 37 69.818 C 37 68.017, 13.698 22.794, 11.304 19.949 C 9.123 17.358, 8.115 11.218, 9.623 9.710 C 10.720 8.614, 17 14.161, 17 16.226 C 17 17.716, 17.438 18.041, 18.750 17.522 C 23.435 15.669, 27.218 15.892, 35.420 18.503 C 44.053 21.252, 46.656 21.261, 53.115 18.564 C 54.481 17.994, 54.839 18.990, 55.432 25.011 C 56.231 33.110, 55.877 33.850, 49.928 36.532 C 46.271 38.181, 45.358 38.233, 41.173 37.029 C 38.603 36.289, 34.925 35.516, 33 35.310 C 26.156 34.580, 26.241 35.461, 34.626 52.274 L 42.392 67.843 46.847 64.671 C 54.954 58.901, 59.981 50.104, 61.517 39 C 62.546 31.563, 60.301 6.705, 58.480 5.367 C 54.407 2.374, 26.156 1.035, 12.500 3.187 M 18 8.820 C 18 10.649, 21.154 11.787, 24.916 11.316 C 27.057 11.048, 30.879 11.699, 34.407 12.933 C 40.777 15.162, 47.337 15.583, 51.435 14.025 C 54.387 12.902, 54.808 10.554, 52.250 9.478 C 49.217 8.203, 18 7.603, 18 8.820 M 8.467 28.346 C 7.383 32.560, 8.702 42.535, 11.044 47.843 C 12.174 50.404, 14.764 54.216, 16.799 56.313 C 20.797 60.432, 26.793 64.541, 27.612 63.722 C 27.890 63.443, 23.861 54.729, 18.658 44.358 C 10.104 27.304, 9.128 25.772, 8.467 28.346 M 52 41.534 C 49.084 43.161, 41.256 43.428, 37.568 42.026 C 35.069 41.076, 35.119 41.278, 39.576 50.151 L 44.146 59.251 47.507 55.994 C 50.960 52.647, 55.360 43.912, 54.809 41.496 C 54.550 40.360, 54.093 40.366, 52 41.534" stroke="none" fill="#f1f2f7" fill-rule="evenodd"/></svg>